<?xml version="1.0" encoding="utf-8"?>
<!-- Generator: Adobe Illustrator 26.0.1, SVG Export Plug-In . SVG Version: 6.00 Build 0)  -->
<svg version="1.1" id="레이어_1" xmlns:v="https://vecta.io/nano"
	 xmlns="http://www.w3.org/2000/svg" xmlns:xlink="http://www.w3.org/1999/xlink" x="0px" y="0px" viewBox="0 0 375 265"
	 style="enable-background:new 0 0 375 265;" xml:space="preserve">
<style type="text/css">
	.st0{fill:#575757;}
</style>
<path class="st0" d="M237.7,84.7l0-4.3c0-0.3,0.2-0.4,0.4-0.4c1.9-0.7,3.9-1.1,6-1.2c1.9-0.1,3.7,0,5.5,0.6c0.4,0.1,0.3-0.2,0.4-0.3
	c0.5-1.9,1.1-3.7,2-5.4c4.5-9.2,11.8-15,21.8-16.8c10-1.8,18.8,0.8,26.3,7.8c5.4,5.1,8.6,11.4,9.3,18.8c0.9,9.8-2.1,18.2-9,25.2
	c-4.4,4.4-9.9,7-16.1,8c-6.7,1.1-13.1,0.2-19.2-2.8c-5-2.4-9-6-12.2-10.5c-1.4-2-2.7-4.1-3.6-6.3c-0.2-0.4-0.3-0.3-0.6-0.2
	c-2.2,1.4-4.7,2.1-7.3,1.9c-1.8-0.2-3.3-0.8-4.6-2.1c-2-2-2.1-7.1,1.4-9c1.6-0.9,3.3-1.2,5.1-1.3c1.6-0.1,3.1-0.1,4.7,0.1
	c0.4,0.1,0.3-0.2,0.3-0.4c-0.1-1.3-0.9-2.2-2.1-2.6c-1.7-0.5-3.3-0.3-5,0C239.9,83.6,238.8,84,237.7,84.7L237.7,84.7z M294.9,95.3
	l-0.3,0.5c-0.6,0.8-1.3,1.6-2.2,2.1c-2.1,1.2-4.3,1.1-6.5,0.5c-1.4-0.4-2.6-1.2-3.4-2.5c-2-3.3-0.4-7.6,3.4-8.8
	c2.7-0.9,5.5-1,8.3-0.6c0.5,0.1,0.5-0.1,0.4-0.5c-0.2-1.5-1.2-2.5-2.9-2.7c-2.5-0.3-4.9,0-7.2,1.2c-0.1,0-0.2,0.2-0.4,0l0-3.9
	c0-0.4,0.1-0.6,0.5-0.7c0.8-0.2,1.6-0.5,2.4-0.7c2.9-0.6,5.8-0.8,8.7,0.1c2.8,0.9,4.6,2.7,5.1,5.7c0.3,1.6,0.2,3.3,0.1,5
	c-0.1,1.8-0.2,3.6,0.1,5.4c0.1,0.7,0.2,1.5,0.6,2.2l0.2-0.4c1.9-4.6,2.6-9.3,1.9-14.2c-0.9-6.4-3.6-11.8-8.4-16.1
	c-6.7-6.1-14.6-8.5-23.6-6.7c-10.7,2.2-17.5,8.9-20.7,19.3c-0.1,0.3-0.1,0.5,0.3,0.7c1.4,0.8,2.4,2.1,2.8,3.6
	c0.4,1.4,0.6,2.9,0.9,4.4c0.9,4.2,3.5,6,6.6,6.2c1.1,0.1,2.2,0.2,3.2-0.2c0.5-0.2,0.9-0.5,1-1c0.1-0.6-0.1-1-0.6-1.4
	c-0.5-0.4-1.1-0.6-1.7-0.8l-3.6-1.1c-2.9-1-3.8-3.5-3.3-6.2c0.4-2.1,1.9-3.3,3.8-4.1c1.6-0.7,3.3-0.8,5-0.8c1.9,0.1,3.7,0.3,5.5,0.9
	c0.3,0.1,0.4,0.3,0.4,0.6l-0.4,3.9c0,0.3-0.1,0.3-0.4,0.2c-1.1-0.6-2.4-1-3.7-1.1c-1.1-0.1-2.2-0.1-3.3,0.3
	c-0.4,0.1-0.7,0.4-0.8,0.8c-0.1,0.5,0.2,0.8,0.6,1.1c0.3,0.3,0.7,0.4,1.2,0.6l3.7,1c1.2,0.3,2.3,0.8,3.1,1.7
	c1.4,1.6,1.5,3.5,1.1,5.5c-0.5,2.4-2.3,3.5-4.5,4.1c-2.3,0.6-4.7,0.5-7.1,0.4c-1-0.1-2.1-0.3-3.2-0.5c0.1,0.2,0.2,0.4,0.3,0.5
	c1.1,2,2.5,3.9,4.2,5.5c7.9,7.2,16.9,9.1,26.9,5.3c5.3-2,9.3-5.7,12.2-10.6c0.3-0.5,0.3-0.5-0.3-0.5c-1.6,0-3.3,0-4.9,0
	c-0.6,0-0.7-0.2-0.7-0.7C295,96.9,294.9,96.2,294.9,95.3z M292.5,89.8c-1.1-0.1-2.2-0.1-3.3,0.3c-1,0.4-1.5,1.2-1.4,2.2
	c0.1,0.9,0.6,1.5,1.6,1.8c3.1,0.9,5.1-1.8,5.1-4c0-0.3-0.1-0.3-0.3-0.3L292.5,89.8L292.5,89.8z M244.1,94.3c2.1,0,4-2,4.1-4.1
	c0-0.3-0.1-0.4-0.4-0.4l-3.1-0.1c-0.8,0-1.5,0.2-2.2,0.5c-0.8,0.4-1.1,1.1-1.1,2c0,0.9,0.6,1.4,1.3,1.7
	C243.2,94.2,243.7,94.3,244.1,94.3L244.1,94.3L244.1,94.3z M156.4,117.5c6.8-0.1,10.7,4.9,11.6,9.6c0.8,4,0.2,7.8-2.4,11.1
	c-2.1,2.7-4.9,4.1-8.3,4.3c-2.4,0.1-4.8-0.2-6.9-1.4c-2.4-1.4-4.1-3.5-5-6.1c-1.2-3.4-1.2-6.9,0.1-10.2
	C147.3,120,151.2,117.5,156.4,117.5L156.4,117.5z M161.1,129.9c0-1-0.1-1.9-0.2-2.9c-0.3-1.6-0.8-3.2-1.8-4.4
	c-1.5-1.8-3.9-1.8-5.3,0c-0.6,0.7-1,1.5-1.2,2.4c-0.9,2.7-0.9,5.5-0.5,8.3c0.3,1.5,0.8,2.9,1.8,4.1c0.5,0.7,1.3,1.1,2.1,1.2
	c1.6,0.2,2.9-0.6,3.8-2.2C160.8,134.5,161.1,132.4,161.1,129.9z M77.4,117.5c7.3-0.2,11.2,5.5,11.8,10.6c0.4,3.3,0,6.4-1.9,9.3
	c-2.1,3.2-5.1,5-9,5.2c-3,0.2-5.8-0.4-8.2-2.4c-2.6-2.1-4-4.8-4.4-8.1c-0.4-2.8-0.1-5.5,1.2-8.1C68.9,119.8,72.6,117.5,77.4,117.5z
	 M82.2,130.1c0-1.2-0.1-2.3-0.3-3.5c-0.4-1.7-0.9-3.2-2.1-4.5c-1.3-1.3-3.4-1.2-4.6,0c-0.8,0.7-1.2,1.7-1.5,2.7
	c-0.9,2.6-0.9,5.4-0.6,8.1c0.2,1.5,0.7,2.9,1.5,4.1c0.6,0.9,1.4,1.5,2.4,1.6c1.8,0.2,2.9-0.7,3.8-2.1
	C81.9,134.6,82.2,132.4,82.2,130.1L82.2,130.1z M235.8,136.6c-1.2,2.2-3.2,3.5-5.3,4.5c-1.7,0.8-3.5,1.3-5.4,1.6
	c-0.3,0.1-0.4,0-0.4-0.4v-4.8c0-0.3,0.1-0.4,0.4-0.5c1.1-0.3,2.1-0.7,3-1.3c2.3-1.3,3.4-3.4,3.9-6c0.4-2.3,0.3-4.7,0.3-7
	c0-0.5,0.2-1.1-0.1-1.4c-0.3-0.3-0.9-0.1-1.4-0.1c-1.4,0-2.8,0-4.2,0c-0.4,0-0.5-0.1-0.5-0.5v-2.7c0-0.3,0.1-0.4,0.4-0.4H245
	c0.3,0,0.4,0.1,0.4,0.4v2.8c0,0.3-0.1,0.4-0.4,0.4c-1.8,0-3.6,0-5.3,0c-0.3,0-0.4,0-0.4,0.4l0.1,6.3c0.1,1.5,0.4,2.9,1,4.3
	c1,2.2,2.7,3.4,4.9,4.2c0.4,0.2,0.9,0.3,1.3,0.4c0.3,0.1,0.4,0.2,0.4,0.5v4.8c0,0.3,0,0.4-0.4,0.4c-3.6-0.6-6.9-1.7-9.5-4.4
	c-0.3-0.3-0.5-0.5-0.7-0.8C236.1,137.2,236,136.9,235.8,136.6z M194.6,136c-1.5,2.9-3.9,4.5-6.8,5.5c-0.6,0.2-1.2,0.4-1.8,0.5
	c-0.4,0.1-0.4,0-0.4-0.4v-4.8c0-0.2,0.1-0.5,0.4-0.5c0.9-0.3,1.8-0.8,2.6-1.3c1.5-1.1,2.2-2.7,2.5-4.5c0.5-2.4,0.4-4.9,0.4-7.3
	l0-1.4c0-0.4-0.1-0.5-0.6-0.5c-1.4,0-2.8,0-4.2,0c-0.4,0-0.5-0.1-0.5-0.5v-2.6c0-0.3,0.1-0.4,0.4-0.4h15.9c0.3,0,0.4,0.1,0.4,0.4
	v2.8c0,0.3-0.1,0.4-0.4,0.4c-1.5,0-2.9,0-4.4,0c-0.3,0-0.5,0-0.5,0.4c0.1,2.5-0.1,5,0.2,7.6c0.1,0.8,0.3,1.6,0.5,2.4
	c0.6,2.3,2.3,3.6,4.4,4.5c0.8,0.3,0.8,0.3,0.8,1.2l0,4.4c0,0.3,0,0.4-0.4,0.3c-2.9-0.6-5.4-1.9-7.4-4.1
	C195.3,137.3,194.9,136.7,194.6,136L194.6,136L194.6,136z M171.1,133l0-15.1c0-0.4,0.1-0.5,0.5-0.5h5.8c0.4,0,0.5,0.1,0.5,0.5l0,8.1
	c0,0.5,0.1,0.6,0.6,0.6l3.9,0c0.3,0,0.4,0.1,0.4,0.4c0,1,0,2,0,3c0,0.4-0.1,0.4-0.5,0.4c-1.3,0-2.7,0-4,0c-0.4,0-0.5,0.1-0.5,0.5
	l0,17.3c0,0.5-0.1,0.6-0.6,0.6c-1.9,0-3.8,0-5.7,0c-0.4,0-0.5-0.1-0.5-0.5L171.1,133L171.1,133z M92.2,133.1l0-15.2
	c0-0.4,0.1-0.5,0.5-0.5h5.7c0.4,0,0.5,0.1,0.5,0.5l0,8.2c0,0.4,0.1,0.5,0.5,0.5l4,0c0.3,0,0.4,0.1,0.4,0.4c0,1,0,2,0,3.1
	c0,0.3-0.1,0.4-0.4,0.4c-1.4,0-2.7,0-4.1,0c-0.4,0-0.5,0.1-0.5,0.5l0,17.2c0,0.5-0.1,0.6-0.6,0.6c-1.9,0-3.8,0-5.7,0
	c-0.4,0-0.5-0.1-0.5-0.5L92.2,133.1L92.2,133.1z M115.6,136c-1.9,3.4-4.9,5-8.5,5.9c-0.4,0.1-0.6,0.1-0.5-0.4l0-4.7
	c0-0.3,0-0.4,0.3-0.5c2.9-1.1,4.4-3.3,5-6.2c0.4-1.7,0.5-3.5,0.5-5.3l0-6.8c0-0.4,0.1-0.5,0.5-0.5h5.4c0.3,0,0.4,0.1,0.4,0.4l0,7.8
	c0,2,0.3,4,0.9,5.9c0.7,2.2,2.2,3.7,4.4,4.6c0.4,0.2,0.5,0.4,0.5,0.8v4.6c0,0.3,0,0.5-0.4,0.4c-3.1-0.6-5.8-2-7.8-4.5
	C116.1,136.9,115.9,136.5,115.6,136L115.6,136L115.6,136z M251.3,133l0-15.1c0-0.4,0.1-0.5,0.5-0.5h5.8c0.3,0,0.4,0.1,0.4,0.4v30.5
	c0,0.3-0.1,0.4-0.4,0.4c-1.9,0-3.8,0-5.8,0c-0.4,0-0.5-0.1-0.5-0.5L251.3,133L251.3,133z M132,132.9l0,14.9c0,0.5-0.1,0.6-0.6,0.6
	c-1.6,0-3.1,0-4.7,0c-0.4,0-0.5-0.1-0.5-0.5l0-16.9c0-0.4-0.1-0.6-0.5-0.6l-3.6,0c-0.3,0-0.4-0.1-0.4-0.4V127c0-0.3,0.1-0.4,0.4-0.4
	l3.6,0c0.5,0,0.6-0.1,0.5-0.6l0-8.1c0-0.4,0.1-0.5,0.5-0.5h4.8c0.4,0,0.5,0.1,0.5,0.5L132,132.9L132,132.9z M212.2,132.9l0,14.9
	c0,0.4-0.1,0.6-0.5,0.5c-1.6,0-3.2,0-4.7,0c-0.5,0-0.5-0.2-0.5-0.6l0-17.6c0-0.5-0.1-0.6-0.6-0.6l-3.6,0c-0.3,0-0.4-0.1-0.4-0.4
	v-3.1c0-0.3,0.1-0.4,0.4-0.4l3.7,0c0.4,0,0.5-0.1,0.5-0.5l0-7.4c0-0.4,0.1-0.5,0.5-0.5l4.7,0c0.5,0,0.6,0.1,0.6,0.6L212.2,132.9
	L212.2,132.9z M139.6,133.1l0,15.1c0,0.4-0.1,0.5-0.5,0.5c-1.7,0-3.5,0-5.2,0c-0.4,0-0.5,0-0.5-0.5v-30.5c0-0.4,0.1-0.5,0.5-0.5h5.3
	c0.4,0,0.5,0.1,0.5,0.5L139.6,133.1z M213.6,133.1l0-15.1c0-0.4,0.1-0.5,0.5-0.5h5.2c0.4,0,0.5,0.1,0.5,0.5v30.5
	c0,0.4-0.1,0.5-0.4,0.5c-1.8,0-3.5,0-5.3,0c-0.4,0-0.5-0.1-0.5-0.5L213.6,133.1L213.6,133.1z M273.7,88.7l0-9c0-0.4,0.1-0.6,0.5-0.6
	h5.7c0.4,0,0.5,0.1,0.5,0.5v18.2c0,0.4-0.1,0.5-0.5,0.5c-1.9,0-3.8,0-5.7,0c-0.4,0-0.5-0.1-0.5-0.5L273.7,88.7L273.7,88.7z
	 M277,71.2c1.8-0.2,3.4,1.4,3.4,3.3c0,1.8-1.4,3.3-3.3,3.3c-1.9,0.1-3.4-1.6-3.4-3.3C273.7,72.5,275.5,71,277,71.2L277,71.2z"/>
</svg>
