<?xml version="1.0" encoding="utf-8"?>
<!-- Generator: Adobe Illustrator 26.0.1, SVG Export Plug-In . SVG Version: 6.00 Build 0)  -->
<svg version="1.1" id="Layer_1" xmlns="http://www.w3.org/2000/svg" xmlns:xlink="http://www.w3.org/1999/xlink" x="0px" y="0px"
	 viewBox="0 0 410 88" style="enable-background:new 0 0 410 88;" xml:space="preserve">
<style type="text/css">
	.st0{fill:#575757;}
</style>
<g>
	<g>
		<path class="st0" d="M171.2,65.9c-1.4-10.6-6.6-19.2-11.9-19.2c-5.3,0-13.1,8.6-17.6,19.3c-4.5,10.6,0.6,19.2,12,19.2
			C165.1,85,172.6,76.5,171.2,65.9"/>
		<g>
			<path class="st0" d="M116.9,37.8L116.9,37.8c-6.8,0-11.8,5.4-11.8,12.2c0,6.8,5,12,11.8,12c3.8,0,7.4-1.7,9.7-4.6
				c-0.3-0.2-0.9-1.6-3.1-1.6c-2.1,0-2.5,2.1-6.6,2.1c-4,0-7.3-3.4-7.3-7.8c0-4.4,3.3-8,7.3-8c3.6,0,4.5,2.2,6.4,2.2
				c1.9,0,3-1.5,3.2-1.7C124.1,39.5,120.6,37.8,116.9,37.8"/>
		</g>
		<g>
			<path class="st0" d="M140.8,38.5h-9.6c-1.6,0-2.7,1-2.7,2.5v1.4h4.3c0,0,0.2,14.4,0,16l0,0c-0.1,1.2-0.6,4-3.3,5.3
				c-2.2,1.1-2.3,2.1-2.4,3.6l0,0c0,0.1,0.1,0.2,0.1,0.2h0c0,0,0,0,0,0c0.1,0,2.2-0.6,2.5-0.7l0,0c2-0.6,5.1-2,6.6-4.9
				c0,0,1.4-2.1,1.4-6.7V42.4h0.2c1.6,0,2.9-1,2.9-2.5V38.5"/>
		</g>
		<path class="st0" d="M190.2,30.9c-10-3.9-20-3.5-22.6,1.1c-2.5,4.7,1.2,15.6,8.3,24.7c7.1,9.1,17.1,8.8,22.6-1.2
			C203.9,45.7,200.1,34.8,190.2,30.9"/>
		<path class="st0" d="M139.4,34.1c8.9,6,18.8,7.9,22.3,4c3.5-4,2.3-15.5-2.6-26c-4.9-10.5-14.7-12.4-22.3-3.9
			C129.3,16.6,130.6,28.1,139.4,34.1"/>
	</g>
	<g>
		<path class="st0" d="M219.4,54.9c-1,0.2-2.4,0.3-3.8,0.4c-1.4,0.1-2.8,0.2-4.3,0.2h-4.3V41.6c0-0.7,0.2-1.3,0.6-1.7
			c0.4-0.4,1-0.6,1.7-0.6h8.2v1.2c0,0.3-0.1,0.5-0.2,0.7c-0.1,0.2-0.2,0.3-0.4,0.4c-0.1,0.1-0.3,0.1-0.4,0.1c-0.1,0-0.2,0-0.3,0
			h-5.7v11.5h3.2c0.7,0,1.5,0,2.5-0.1c1-0.1,2.2-0.2,3.2-0.3v-12c0-0.7,0.2-1.3,0.5-1.7c0.4-0.4,0.9-0.6,1.6-0.6h1.5v7.1h1.7v-4.8
			c0-0.7,0.2-1.3,0.6-1.7c0.4-0.4,0.9-0.6,1.6-0.6h1.5v21.2c0,0.8-0.2,1.3-0.5,1.7c-0.4,0.4-0.9,0.6-1.5,0.6h-1.6V47.8H223v11.8
			c0,0.8-0.2,1.3-0.6,1.7c-0.4,0.4-0.9,0.6-1.5,0.6h-1.5V54.9z"/>
		<path class="st0" d="M255.5,46.9h-3.9v6.2c0,0.8-0.2,1.3-0.6,1.7c-0.4,0.4-0.9,0.6-1.6,0.6H248V40.7c0-0.7,0.2-1.3,0.6-1.7
			c0.4-0.4,0.9-0.6,1.5-0.6h1.6v6.2h2.7c0,0,0.1,0,0.3,0c0.1,0,0.3,0.1,0.4,0.2c0.1,0.1,0.3,0.2,0.4,0.4c0.1,0.2,0.2,0.4,0.2,0.6
			V46.9z M241.2,45.9c0-0.5-0.1-0.9-0.2-1.3c-0.2-0.4-0.4-0.8-0.6-1.1c-0.3-0.3-0.6-0.6-1-0.8c-0.4-0.2-0.8-0.3-1.2-0.3
			c-0.4,0-0.8,0.1-1.2,0.3c-0.4,0.2-0.7,0.5-1,0.8c-0.3,0.3-0.5,0.7-0.6,1.1c-0.2,0.4-0.2,0.9-0.2,1.3c0,1,0.3,1.9,0.9,2.6
			c0.6,0.7,1.3,1,2.1,1c0.8,0,1.5-0.3,2.1-1C240.9,47.8,241.2,46.9,241.2,45.9 M251.9,59.6v1.1c0,0.3-0.1,0.5-0.2,0.7
			c-0.1,0.2-0.2,0.3-0.4,0.4c-0.1,0.1-0.3,0.1-0.4,0.1c-0.1,0-0.2,0-0.3,0h-15.8v-5.4c0-0.7,0.2-1.3,0.5-1.7
			c0.4-0.4,0.9-0.6,1.6-0.6h1.5v5.4H251.9z M245.2,41.1c0,0.3-0.1,0.5-0.2,0.7c-0.1,0.2-0.2,0.3-0.4,0.4c-0.1,0.1-0.3,0.1-0.4,0.1
			c-0.1,0-0.2,0-0.3,0h-0.4c0.4,0.5,0.8,1.1,1,1.6c0.2,0.6,0.4,1.2,0.4,1.9c0,0.9-0.2,1.6-0.5,2.4c-0.4,0.7-0.9,1.3-1.5,1.9
			c-0.6,0.5-1.3,0.9-2.1,1.2c-0.8,0.3-1.7,0.4-2.6,0.4c-0.9,0-1.8-0.1-2.6-0.4c-0.8-0.3-1.5-0.7-2.1-1.2c-0.6-0.5-1.1-1.1-1.5-1.9
			c-0.4-0.7-0.5-1.5-0.5-2.4c0-0.7,0.1-1.3,0.4-1.9c0.2-0.6,0.6-1.2,1-1.7h-1.7v-1.1c0-0.3,0.1-0.5,0.2-0.7c0.1-0.2,0.2-0.3,0.4-0.4
			c0.1-0.1,0.3-0.1,0.4-0.2c0.1,0,0.2,0,0.3,0h3.9v-0.5c0-0.6,0.1-1,0.4-1.3c0.3-0.3,0.7-0.5,1.2-0.5h2.2V40h5V41.1z"/>
		<path class="st0" d="M272.1,58c0-0.4-0.1-0.8-0.3-1.1c-0.2-0.4-0.5-0.7-0.8-1c-0.4-0.3-0.8-0.5-1.2-0.7c-0.5-0.2-1-0.3-1.5-0.3
			c-0.5,0-1.1,0.1-1.5,0.3c-0.5,0.2-0.9,0.4-1.2,0.7c-0.4,0.3-0.6,0.6-0.8,1c-0.2,0.4-0.3,0.7-0.3,1.1c0,0.4,0.1,0.8,0.3,1.2
			c0.2,0.4,0.5,0.7,0.8,1c0.3,0.3,0.8,0.5,1.2,0.6c0.5,0.2,1,0.2,1.5,0.2c0.5,0,1-0.1,1.5-0.2c0.5-0.2,0.9-0.4,1.2-0.6
			c0.3-0.3,0.6-0.6,0.8-1C272,58.8,272.1,58.4,272.1,58 M275.9,58L275.9,58c0,0.8-0.2,1.5-0.6,2.1c-0.4,0.7-1,1.2-1.7,1.7
			c-0.7,0.5-1.5,0.9-2.5,1.2c-0.9,0.3-1.9,0.4-3,0.4c-1.1,0-2.1-0.1-3-0.4c-0.9-0.3-1.8-0.7-2.5-1.2c-0.7-0.5-1.3-1.1-1.7-1.7
			c-0.4-0.7-0.6-1.4-0.6-2.1c0-0.7,0.2-1.4,0.6-2c0.4-0.7,1-1.2,1.7-1.7c0.7-0.5,1.5-0.9,2.5-1.2c0.9-0.3,2-0.4,3-0.4
			c1,0,2,0.1,3,0.4c0.9,0.3,1.8,0.7,2.5,1.2c0.7,0.5,1.3,1,1.7,1.7C275.7,56.6,275.9,57.3,275.9,58 M276.7,43.2
			c0,0.3-0.1,0.5-0.2,0.7c-0.1,0.2-0.2,0.3-0.4,0.3c-0.1,0.1-0.3,0.1-0.4,0.1c-0.1,0-0.2,0-0.3,0h-12.7v1.3h14.1v1.1
			c0,0.3-0.1,0.5-0.2,0.7c-0.1,0.2-0.2,0.3-0.4,0.4c-0.1,0.1-0.3,0.1-0.4,0.1c-0.1,0-0.2,0-0.3,0h-5.8v1.6h10v1
			c0,0.3-0.1,0.5-0.2,0.7c-0.1,0.2-0.2,0.3-0.4,0.4c-0.1,0.1-0.3,0.1-0.4,0.1c-0.1,0-0.2,0-0.3,0h-22.2v-1.1c0-0.3,0.1-0.5,0.2-0.6
			c0.1-0.2,0.2-0.3,0.4-0.3c0.1-0.1,0.3-0.1,0.4-0.1c0.1,0,0.2,0,0.3,0h8.7V48h-7.2v-6.8c0-0.8,0.3-1.4,0.9-2
			c0.6-0.5,1.3-0.8,2.1-0.8h14.7v1.1c0,0.3-0.1,0.5-0.2,0.7c-0.1,0.2-0.2,0.3-0.4,0.4c-0.1,0.1-0.3,0.1-0.4,0.1c-0.1,0-0.2,0-0.3,0
			h-12.8v1.4h13.9V43.2z"/>
		<path class="st0" d="M297,43.1c0-0.5-0.1-0.9-0.3-1.4c-0.2-0.4-0.5-0.8-0.8-1.1c-0.3-0.3-0.7-0.6-1.2-0.8c-0.5-0.2-1-0.3-1.5-0.3
			c-0.5,0-1,0.1-1.5,0.3c-0.5,0.2-0.9,0.4-1.2,0.8c-0.4,0.3-0.6,0.7-0.8,1.1c-0.2,0.4-0.3,0.9-0.3,1.4c0,0.5,0.1,1,0.3,1.4
			c0.2,0.4,0.5,0.8,0.8,1.1c0.3,0.3,0.7,0.6,1.2,0.7c0.5,0.2,1,0.3,1.5,0.3c0.5,0,1-0.1,1.5-0.3c0.5-0.2,0.9-0.4,1.2-0.7
			c0.3-0.3,0.6-0.7,0.8-1.1C296.9,44.1,297,43.6,297,43.1 M300.7,43.1c0,0.8-0.2,1.5-0.6,2.2c-0.4,0.7-0.9,1.3-1.6,1.8
			c-0.7,0.5-1.5,0.9-2.4,1.2c-0.9,0.3-1.9,0.4-3,0.4c-1,0-2-0.1-2.9-0.4c-0.9-0.3-1.7-0.7-2.4-1.2c-0.7-0.5-1.2-1.1-1.6-1.8
			c-0.4-0.7-0.6-1.4-0.6-2.3c0-0.8,0.2-1.5,0.6-2.2c0.4-0.7,0.9-1.3,1.6-1.8c0.7-0.5,1.5-0.9,2.4-1.2c0.9-0.3,1.9-0.5,3-0.5
			c1,0,2,0.1,2.9,0.5c0.9,0.3,1.7,0.7,2.4,1.2c0.7,0.5,1.2,1.1,1.6,1.8C300.5,41.6,300.7,42.3,300.7,43.1 M302.2,60.7
			c0,0.3-0.1,0.5-0.2,0.7c-0.1,0.2-0.2,0.3-0.4,0.4c-0.1,0.1-0.3,0.1-0.4,0.1c-0.1,0-0.2,0-0.3,0h-16.7v-5c0-0.7,0.2-1.3,0.5-1.7
			c0.4-0.4,0.9-0.6,1.6-0.6h1.5v5h14.2V60.7z M304.9,50.8c0,0.3-0.1,0.5-0.2,0.7c-0.1,0.2-0.2,0.3-0.4,0.4c-0.1,0.1-0.3,0.2-0.4,0.2
			c-0.1,0-0.2,0-0.3,0h-8.4v1.7c0,0.8-0.2,1.4-0.6,1.8c-0.4,0.4-0.9,0.6-1.5,0.6h-1.5v-4h-10.2V51c0-0.3,0.1-0.5,0.2-0.7
			c0.1-0.2,0.2-0.3,0.4-0.3c0.2-0.1,0.3-0.1,0.4-0.1c0.1,0,0.2,0,0.3,0h22.2V50.8z"/>
	</g>
</g>
</svg>
