<?xml version="1.0" encoding="utf-8"?>
<!-- Generator: Adobe Illustrator 26.0.1, SVG Export Plug-In . SVG Version: 6.00 Build 0)  -->
<svg version="1.1" id="레이어_1" xmlns="http://www.w3.org/2000/svg" xmlns:xlink="http://www.w3.org/1999/xlink" x="0px"
	 y="0px" viewBox="0 0 375 265" style="enable-background:new 0 0 375 265;" xml:space="preserve">
<style type="text/css">
	.st0{fill-rule:evenodd;clip-rule:evenodd;fill:#575757;}
	.st1{fill-rule:evenodd;clip-rule:evenodd;fill:#FFFFFF;}
	.st2{fill:none;}
</style>
<g>
	<path class="st0" d="M148.8,125.1c0-4.2,5.9-7.5,13.1-7.5c7.2,0,13.1,3.3,13.1,7.5c0,4.2-5.9,7.6-13.1,7.6
		C154.7,132.6,148.8,129.3,148.8,125.1z M168.5,143v-4.9c11.5-1.4,20-6.7,20-13c0-7.4-11.7-13.4-26.2-13.4
		c-14.4,0-26.1,5.9-26.1,13.4c0,6.2,8.2,11.4,19.4,12.9v5l-19.6-0.1c0,0-2.9,0-3,2.8c0,0-0.3,3.1,2.9,3.1h54.4V143L168.5,143z
		 M230.4,133H210v9.9h24.4l0,6h-29.5c-7.1-0.2-6.5-7.4-6.5-7.4V127h20.2v-7.3h-18.1h0.3c-3.2,0-2.9-3.1-2.9-3.1c0.1-2.9,3-2.8,3-2.8
		h25.4c0,0,4.3,0.1,4.1,3.8L230.4,133L230.4,133z M272.1,121.5c0-2,5.5-3.7,12.2-3.7c6.8,0,12.2,1.7,12.2,3.7c0,2-5.5,3.6-12.2,3.6
		C277.6,125.2,272.1,123.6,272.1,121.5z M312.1,137.6V132h-21.4v-1.5c10.9-1,19.1-4.6,19.1-9c0-5.1-11.4-9.3-25.4-9.3
		c-14,0-25.3,4.2-25.3,9.3c0,4.2,7.8,7.8,18.4,8.9v1.7l-19.2,0c0,0-2.7-0.1-3,2.5c0,0-0.3,3.1,2.9,3.1h3.5v6.1c0,0-0.6,5.1,7.3,5.1
		h39.3v-5.7h-34.6v-5.6L312.1,137.6L312.1,137.6z M242.6,113.2c0,0,6.6-1,6.6,5.7v29.9h-12.4v-30.3
		C236.8,118.5,236.4,113.6,242.6,113.2 M89.7,159.2c14.9,0,26.9-12.1,26.9-26.9c0-14.9-12-27-26.9-27c-14.8,0-26.9,12.1-26.9,27
		C62.8,147.2,74.9,159.2,89.7,159.2"/>
	<path class="st0" d="M123.2,106.5l-2.5,7.2H113l6.3,5.1l-2.3,7.2l6.7-4.4l6.7,4.4l-2.6-7.7l6.2-4.7h-7.7L123.2,106.5z"/>
	<path class="st1" d="M99.8,108.5l-1.3,6.1c0,0-4.4,0.5-6.5,1.3l5.7,3.6l-1,5.4l5.5-4.1l6.3,3l-2.7-5.9l2.6-4.2c0,0-4,0.1-5.5,0.4
		C102.9,114.1,99.8,108.5,99.8,108.5z M84.4,145.1l-1.2,3c0,0-1.7,0-2.8,0l2,2.1l-1.1,2.9l3.1-1.8l3.1,1.7l-1.1-2.8l1.9-2.4
		c0,0-1.9,0.2-2.6,0.2L84.4,145.1L84.4,145.1z M82.5,114l-0.6,5.6c0,0-3.1,1.4-4.6,2.7l4.6,1.5l-0.5,4.8l4.4-4.2l5.3,1.8l-2.8-4.9
		l2-4.7c0,0-2.4,0.5-4.8,1.6C85.7,118,82.5,114,82.5,114z M69.1,122.9l1.1,4.7c0,0-1.7,1.7-2.7,3.1l3.7,0.1l0.8,3.9l2.5-4.3l4.7-0.3
		l-3.5-2.9l0.3-4.2c0,0-1.6,0.9-3.1,2.3C72.8,125.3,69.1,122.9,69.1,122.9z M70.4,138.7l-3.8,2.3c-0.9,3.8,1,6.7,1,6.7
		s-2.4-3.7-3-5.3c-0.5-1.6-1.6-4.7-1.3-5.4c1.3-2.9,3.1-5,3.1-5s-0.9,3.6-0.7,5.8L70.4,138.7z M78.9,148c0,0-1.5,1-3.2,1.2l0.2,4.3
		l-2.9-4c0,0-2.7,0.3-3.4,0l1.4-1.7c0,0-1.3-1.6-2-3.4c0,0,2.2,1.6,3.7,2l2.2-2.6l0.7,3.7c0,0,1.8,0.5,3.2,0.5"/>
	<path class="st2" d="M-90.3,72.9h555.6v119.2H-90.3V72.9z"/>
</g>
</svg>
