<svg width="410" height="88" xmlns="http://www.w3.org/2000/svg" xmlns:xlink="http://www.w3.org/1999/xlink"><defs><path id="a" d="M0 0h42.447v28.68H0z"/><path id="c" d="M0 0h13.384v26.004H0z"/></defs><g fill="none" fill-rule="evenodd"><path d="M247.732 18.004c17.182-.001 34.365-.01 51.548.009 2.17.002 3.91.917 5.11 2.784.513.798.564 1.7.565 2.585.016 11.246.009 22.491.008 33.737 0 .858-.065 1.722.012 2.573.32 3.522-2.49 6.104-6.015 6.107-2.755.002-5.51 0-8.264 0l-30.165.002c-1.375 0-1.411-.037-1.435-1.363-.014-.787-.027-1.573-.06-2.359-.043-1.034.264-1.412 1.27-1.404 1.065.01 2.13.114 3.194.115 9.262.009 18.525.008 27.788 0 2.294-.001 4.588-.1 6.883-.004 1.276.053 1.435-.15 1.435-1.41.002-11.556.002-23.112.001-34.667 0-1.507-.06-1.577-1.58-1.577-29.786-.001-59.57 0-89.357.002-4.166 0-8.333.002-12.5.001-1.574 0-1.68-.109-1.686-1.72 0-.689 0-1.379.002-2.07.005-1.204.143-1.341 1.388-1.344 1.136-.003 2.272.004 3.409.004h48.449" fill="#494949"/><g transform="translate(105 39.797)"><mask id="b" fill="#fff"><use xlink:href="#a"/></mask><path d="M21.095 22.82c1.143.139 2.333-.131 3.469-.701 3.115-1.565 3.913-4.93 1.735-7.34-2.243-2.482-6.93-2.795-9.546-.696-2.132 1.71-2.66 4.21-1.216 6.166 1.326 1.795 3.149 2.71 5.558 2.57M21.253.017H40.99c1.344 0 1.442.1 1.443 1.485 0 .758-.037 1.517.008 2.272.058.973-.334 1.354-1.325 1.348-4.891-.033-9.783-.024-14.675-.016-.542 0-1.268-.248-1.352.667-.075.826-.191 1.628.956 1.948 2.952.824 5.346 2.505 7.072 5.044 2.524 3.713 1.725 8.9-1.574 11.894-4.597 4.172-9.884 4.858-15.565 3.161-3.63-1.084-6.522-3.285-7.812-7.047-.887-2.586-.68-5.134.712-7.543 1.58-2.732 4.02-4.344 6.919-5.38.811-.29 1.76-.403 1.61-1.72-.093-.812-.375-1.044-1.149-1.04-4.96.025-9.92.013-14.881.018C.1 5.108.016 5.034.014 3.787c0-.861.041-1.725-.009-2.583C-.047.31.3-.009 1.205 0c3.581.037 7.164.016 10.747.016h9.3" fill="#494949" mask="url(#b)"/></g><path d="M125.52 19.152c4.652 0 9.304.002 13.955-.005.603 0 1.193-.008 1.544.592.365.628-.131 1.054-.442 1.457a30.66 30.66 0 0 1-6.826 6.492c-.23.16-.671.151-.597.588.062.368.414.41.701.515 3.092 1.137 6.19 2.26 9.272 3.423 1.074.405 1.092.615.44 1.53-.635.89-1.279 1.778-1.84 2.713-.417.694-.951.701-1.586.464-3.21-1.202-6.416-2.412-9.624-3.618-1.123-.422-2.248-.836-3.367-1.266-.326-.125-.576-.017-.872.122-3.733 1.749-7.567 3.228-11.571 4.258-1.063.274-2.106.621-3.158.938-1.116.335-1.473.132-1.865-.924-.307-.827-.687-1.628-1.06-2.429-.386-.825-.16-1.34.683-1.53 4.068-.92 7.964-2.332 11.745-4.064 1.813-.83 3.524-1.844 5.207-2.902.314-.198.775-.411.656-.81-.112-.379-.599-.19-.92-.19-4.824-.003-9.648.008-14.472.012-1.356 0-1.447-.1-1.443-1.474.002-.854 0-1.708.001-2.562.003-1.202.125-1.326 1.38-1.327 4.686-.004 9.372-.001 14.059-.003M170.225 50.357c-.895-.159-3.033.777-3.895 1.38-3.093 2.166-3.052 6.268-1.335 8.133 2.48 2.695 6.68 3.494 9.86 1.072 2.47-1.879 3.154-4.688 1.589-7.341-1.332-2.257-3.497-3.185-6.219-3.244m.005 18.121c-4.865-.257-9.096-2.117-11.711-6.604-2.95-5.06-1.45-11.198 3.353-14.709 2.226-1.627 4.695-2.503 7.458-2.721 4.54-.358 8.49.932 11.585 4.242 3.595 3.846 4.208 8.615 1.807 12.939-2.624 4.726-6.991 6.679-12.492 6.853M160.47 25.93c-1.597 0-1.959.088-3.264.804-2.727 1.493-3.502 4.95-1.672 7.452 2.31 3.157 7.163 3.22 9.61.166 1.18-1.474 1.329-3.182.799-4.793-.736-2.24-3.063-3.801-5.473-3.63m-12.62 5.267c-.362-5.385 4.284-10.111 9.417-11.274 4.803-1.087 9.041.09 12.474 3.453 3.907 3.826 4.563 9.873.956 14.569-1.894 2.464-4.386 4.067-7.37 4.615-5.486 1.009-10.922-.424-14.31-6.202-.997-1.7-1.17-2.79-1.167-5.16" fill="#494949"/><g transform="translate(177.275 18)"><mask id="d" fill="#fff"><use xlink:href="#c"/></mask><path d="M.016 13.1C.016 9.174.041 5.25 0 1.325-.01.322.368-.029 1.32.002 2.676.045 4.035.02 5.393.009 6.307 0 6.629.402 6.569 1.352c-.095 1.509-.029 3.027-.075 4.54-.025.861.607.843 1.106.85 1.389.019 2.778-.058 4.168-.075 1.451-.019 1.595.18 1.506 1.683-.046.786-.044 1.576.064 2.368.181 1.334-.14 1.667-1.45 1.66a470.705 470.705 0 0 0-3.972-.004c-1.3.004-1.424.12-1.402 1.405.065 3.75-.136 7.5.1 11.247.039.604-.26.972-.913.97-1.595-.007-3.19-.017-4.786.008-.819.012-.912-.451-.91-1.132.02-3.924.01-7.849.011-11.773" fill="#494949" mask="url(#d)"/></g><path d="M201.825 44.634c-2.423.01-2.423.01-2.337 2.484.001.035.003.07 0 .104-.044.722.325.984.994.968.78-.019 1.566-.054 2.341.011.942.08 1.285-.31 1.267-1.247-.052-2.754.24-2.298-2.265-2.32zm-6.945-2.18c0-2.525.025-5.05-.013-7.574-.014-.911.331-1.25 1.206-1.196.779.049 1.565.039 2.345.002.783-.038 1.103.276 1.086 1.09-.038 1.764.013 3.529-.028 5.292-.02.851.27 1.197 1.128 1.133.812-.06 1.634-.05 2.446.001.75.048 1.049-.235 1.034-1.005-.032-1.694-.01-3.389-.016-5.083-.003-1.11.258-1.39 1.368-1.41.714-.014 1.43.024 2.142-.018.9-.054 1.077.42 1.053 1.22-.153 4.976-.138 9.954-.008 14.93.029 1.105-.411 1.785-1.474 1.794-3.603.03-7.207.03-10.81-.004-1.023-.01-1.439-.513-1.446-1.598-.016-2.525-.005-5.05-.005-7.574h-.008zM236.79 34.062c.448 0 .895-.003 1.342 0 1.111.01 1.275.236 1.146 1.377-.27 2.38-.507 4.764-1.309 7.045-.17.484.121.772.445 1.053 2.251 1.961 4.47 3.96 6.767 5.868.768.638.677 1.058.025 1.626-.698.608-1.376 1.24-2.053 1.871-.434.404-.827.372-1.27-.008-1.872-1.611-3.775-3.187-5.63-4.818-.655-.577-1.065-.588-1.695.091a24.393 24.393 0 0 1-6.952 5.228c-.457.23-.757.259-1.068-.124-.693-.851-1.405-1.688-2.055-2.57-.39-.53-.06-.845.442-1.115a16.916 16.916 0 0 0 5.64-4.887c1.957-2.644 3.169-5.588 3.321-8.919.069-1.486.334-1.723 1.77-1.715.378.003.756 0 1.134 0v-.003zM221.998 42.617c.001 2.59-.029 5.183.018 7.773.016.842-.208 1.213-1.103 1.147a18.276 18.276 0 0 0-2.495-.001c-.88.055-1.25-.22-1.205-1.168.077-1.586.006-3.179.039-4.767.014-.7-.244-1.004-.962-1.016-.747-.013-.961.336-.95 1.016.029 1.555.025 3.11.019 4.665-.005 1.122-.428 1.442-1.546 1.356-.75-.058-1.509.029-2.264.03-.665.001-1.006-.298-1.004-1.013.016-5.32.017-10.64.01-15.961 0-.703.299-1.008 1.002-.991.901.021 1.805.036 2.705-.005.811-.036 1.121.3 1.106 1.098-.032 1.762-.007 3.524-.02 5.286-.005.597.01 1.118.835 1.118.823 0 1.082-.414 1.07-1.173-.028-1.728.01-3.456-.034-5.182-.021-.857.321-1.195 1.17-1.145.725.042 1.455.015 2.184.01 1.406-.01 1.425.009 1.424 1.46-.002 2.487 0 4.975 0 7.463M243.258 66.177c-2.837 0-5.675.015-8.512-.008a19.692 19.692 0 0 1-2.651-.198c-.85-.122-1.411-.6-1.54-1.552-.209-1.53-.065-3.064-.102-4.596-.033-1.36-.026-2.72-.004-4.081.018-1.113.327-1.397 1.427-1.405.82-.006 1.64-.01 2.461-.007 1.143.006 1.354.223 1.36 1.423.007 1.36-.015 2.72.003 4.081.026 1.87.213 2.052 1.977 2.045 4.888-.018 9.776-.04 14.664-.055 1.291-.004 1.41.128 1.414 1.428.002.454.002.907.002 1.36.002 1.297-.257 1.565-1.577 1.568-2.974.007-5.948.002-8.922.002v-.005zM248.032 46.583c0-3.854-.004-7.708.003-11.561.002-1.246.106-1.339 1.351-1.339.984 0 1.968.034 2.95-.003.699-.026 1.008.258.984.958a43.866 43.866 0 0 0-.019 1.537c-.001 5.78-.035 11.562.02 17.342.016 1.71.112 3.416.002 5.13-.05.776-.465 1.008-1.12 1.015-.95.01-1.902-.034-2.85.016-.964.052-1.338-.35-1.332-1.327.027-3.923.011-7.845.011-11.768M207.969 57.908c-2.578.002-5.157-.015-7.734.011-.813.009-1.241-.227-1.15-1.127a8.05 8.05 0 0 0 .001-1.654c-.098-.94.338-1.188 1.2-1.186 6.875.02 13.75.021 20.625-.006.88-.003 1.114.334 1.105 1.167-.035 3.174-.03 6.349.001 9.523.008.83-.24 1.213-1.123 1.157a20.426 20.426 0 0 0-2.782 0c-1.022.074-1.312-.355-1.276-1.331.066-1.827-.004-3.658.045-5.486.021-.815-.27-1.093-1.075-1.082-2.612.035-5.225.013-7.837.014M266.376 50.732c.436-.03.885-.065.896-.64.01-.58-.444-.509-.816-.527-.442-.02-.739.122-.74.635-.002.48.258.598.66.532m-5.502-1.127c-.002 1.06.666 1.947 1.457 1.933.863-.015 1.546-.908 1.532-2.005-.012-1.025-.638-1.777-1.477-1.775-.905.003-1.51.743-1.512 1.847m8.549.908c0 1.256-.03 2.511.012 3.765.026.79-.398 1.243-1.055 1.255-.716.013-1.172-.438-1.132-1.29.024-.503.262-1.144-.152-1.5-.5-.427-1.274-.374-1.83-.812-.17-.134-.415.119-.608.282-1.161.985-2.967 1.147-4.125.397-1.091-.707-1.694-2.433-1.302-3.921.328-1.246.865-2.393 2.27-2.691 1.425-.303 2.694.071 3.558 1.305.494.705 1.101.593 1.742.481.554-.096.542-.566.517-.987-.048-.801.22-1.254 1.097-1.263.961-.01 1.023.59 1.012 1.32-.018 1.22-.005 2.44-.004 3.66M275.099 51.335c.918 0 1.836-.007 2.754.002.518.005.784-.21.915-.757.632-2.618.395-2.96-2.171-2.958-1.123 0-2.245-.005-3.367 0-.58.003-.923-.242-.851-.877.064-.565.36-.879.959-.823 2.17.202 4.345.139 6.515.04.707-.031.927.267.952.88.047 1.154-.027 2.302-.287 3.425-.154.663-.138 1.124.698 1.065.542-.038.838.198.84.778.001.622-.375.74-.879.734-.918-.012-1.837.016-2.754-.014-.654-.02-.925.248-.902.926.033.975.011 1.952.014 2.928.002.574-.122 1.1-.8 1.086-.658-.013-.936-.444-.917-1.12.026-.941-.014-1.884.025-2.824.03-.712-.225-1.025-.942-.996-.882.034-1.767.006-2.652.003-.482-.002-.906-.1-.901-.726.004-.6.416-.757.894-.767.952-.017 1.905-.005 2.857-.005M284.875 52.7c-.733-.013-1.136-.38-1.268-.95-.141-.602.441-.57.798-.704 1.819-.686 3.02-1.934 3.503-3.802.145-.563.39-.9 1.02-.942.695-.047.861.4 1.025.913.59 1.856 1.77 3.175 3.658 3.83.462.16.901.395.56.942-.315.507-.694 1.076-1.484.679-1.14-.572-2.224-1.216-3.029-2.227-.485-.609-.814-.863-1.43.012a5.638 5.638 0 0 1-3.353 2.249" fill="#494949"/><path d="M289.248 57.003c-1.456 0-2.912.008-4.368-.004-.568-.005-1.28.148-1.295-.762-.013-.866.562-.968 1.273-.927.76.044 1.526-.015 2.287.026.84.046 1.239-.289 1.189-1.142-.025-.413-.03-.83-.006-1.243.035-.63.409-.913 1.026-.917.618-.003.714.415.76.899.23 2.397.233 2.396 2.701 2.391.451 0 .903-.02 1.352.002.583.029.88.375.89.939.011.616-.445.728-.921.732-1.63.014-3.258.005-4.888.006M265.167 57.76c-1.065 0-2.129-.018-3.192.007-.651.015-.956-.271-.949-.95a88.3 88.3 0 0 0-.003-2.363c-.008-.515.22-.84.699-.885.548-.052.791.318.876.838.09.55-.258 1.22.208 1.64.535.48 1.257.21 1.896.226 1.269.033 2.54.016 3.81.012.472-.002.93.003.924.685-.007.68-.43.806-.974.8-1.099-.011-2.197-.003-3.295-.003v-.007z" fill="#494949"/><path d="M0 0h410v88H0z"/></g></svg>