<?xml version="1.0" encoding="utf-8"?>
<!-- Generator: Adobe Illustrator 26.0.1, SVG Export Plug-In . SVG Version: 6.00 Build 0)  -->
<svg version="1.1" id="레이어_1" xmlns="http://www.w3.org/2000/svg" xmlns:xlink="http://www.w3.org/1999/xlink" x="0px"
	 y="0px" viewBox="0 0 375 265" style="enable-background:new 0 0 375 265;" xml:space="preserve">
<style type="text/css">
	.st0{fill:none;}
	.st1{fill-rule:evenodd;clip-rule:evenodd;fill:#575757;}
	.st2{filter:url(#Adobe_OpacityMaskFilter);}
	.st3{fill-rule:evenodd;clip-rule:evenodd;fill:#FFFFFF;}
	.st4{mask:url(#b_00000016795566541258408380000002183744542146127248_);fill-rule:evenodd;clip-rule:evenodd;fill:#575757;}
	.st5{filter:url(#Adobe_OpacityMaskFilter_00000048486305413011924350000012277801163310633876_);}
	.st6{mask:url(#d_00000085217312194480106490000006996243156833201539_);fill-rule:evenodd;clip-rule:evenodd;fill:#575757;}
</style>
<g>
	<path class="st0" d="M46.4,102.2h282.2v60.6H46.4V102.2z"/>
	<path class="st1" d="M99.5,135.1l6.1,7.7c-1.8,0-3.3,0-4.8,0c-0.2,0-0.5-0.2-0.7-0.4c-2.7-3.3-5.3-6.7-8.2-10.4c1.5,0,2.7,0,3.9,0
		c1.8-0.1,2.9-1,2.9-2.5c0-1.3-0.9-2.5-2.2-2.6c-1.9-0.1-3.9,0-6,0v15.8h-4.1v-19.8c3.6,0,7.1-0.2,10.7,0.1c2.9,0.2,4.8,2,5.5,4.8
		c0.7,2.6-0.1,4.9-2.2,6.7L99.5,135.1"/>
	<g transform="translate(25 29)">
		<defs>
			<filter id="Adobe_OpacityMaskFilter" filterUnits="userSpaceOnUse" x="38.6" y="93.2" width="17.9" height="21.3">
				<feColorMatrix  type="matrix" values="1 0 0 0 0  0 1 0 0 0  0 0 1 0 0  0 0 0 1 0"/>
			</filter>
		</defs>
		
			<mask maskUnits="userSpaceOnUse" x="38.6" y="93.2" width="17.9" height="21.3" id="b_00000016795566541258408380000002183744542146127248_">
			<g class="st2">
				<path id="a_00000104687700050642149430000004837877739984340902_" class="st3" d="M38.6,93.2h17.9v21.3H38.6V93.2z"/>
			</g>
		</mask>
		<path class="st4" d="M56.5,96.3l-2.8,2.6c-4.5-2.3-7.6-2-9.8,1c-1.9,2.6-1.7,6.3,0.6,8.6c2.5,2.6,5.8,2.6,9.4,0.1l2.5,2.8
			c-2.8,3.9-9.8,4.2-14,0.7c-4.6-3.8-5.1-11-1-15.4C45.4,92.2,52.3,92,56.5,96.3"/>
	</g>
	<path class="st1" d="M136.6,122.9v3.9H129c0,0.6-0.1,1.1-0.1,1.6c0,4.4,0,8.7,0,13.1c0,1.1-0.3,1.5-1.4,1.4c-0.8-0.1-1.7,0-2.7,0
		v-16h-7.6v-3.9H136.6z M202.4,139.4V123h1.6v19.7c-1.1,0.4-1.9,0.1-2.6-1c-3-4.8-6.1-9.5-9.2-14.2c-0.3-0.4-0.6-0.8-1.1-1.5v16.8
		h-1.7V123c1.2-0.4,1.9-0.1,2.6,1c3,4.8,6.1,9.5,9.2,14.3c0.2,0.4,0.5,0.7,0.8,1.1L202.4,139.4"/>
	<g transform="translate(360 30)">
		<defs>
			
				<filter id="Adobe_OpacityMaskFilter_00000046340315837671181370000008203948403808789155_" filterUnits="userSpaceOnUse" x="-65.8" y="92.9" width="17.9" height="20.6">
				<feColorMatrix  type="matrix" values="1 0 0 0 0  0 1 0 0 0  0 0 1 0 0  0 0 0 1 0"/>
			</filter>
		</defs>
		
			<mask maskUnits="userSpaceOnUse" x="-65.8" y="92.9" width="17.9" height="20.6" id="d_00000085217312194480106490000006996243156833201539_">
			<g style="filter:url(#Adobe_OpacityMaskFilter_00000046340315837671181370000008203948403808789155_);">
				<path id="c_00000067928851242335499140000012913438446129807542_" class="st3" d="M-65.8,92.9h17.9v20.6h-17.9V92.9z"/>
			</g>
		</mask>
		<path class="st6" d="M-65.8,110.3l1.3-1c3.5,2.7,7.3,2.9,11.2,1.7c0.9-0.3,1.7-0.8,2.4-1.3c1.7-1.4,1.5-3.4-0.5-4.2
			c-1.8-0.7-3.7-1-5.6-1.5c-1.9-0.5-3.8-0.8-5.6-1.5c-1.7-0.6-2.9-1.8-3-3.7c-0.2-2,0.9-3.3,2.4-4.3c4.1-2.8,11.2-2.2,14.5,1.3
			l-1.2,1c-3.3-2.5-6.9-2.8-10.7-1.6c-1.6,0.5-3.2,1.3-3.2,3.2c0,2,1.8,2.5,3.3,2.9c2.3,0.6,4.7,0.9,7,1.5c1,0.2,2.1,0.6,3,1.1
			c3,1.6,3.3,4.9,0.7,7c-2.6,2.2-5.8,2.7-9.2,2.4C-61.5,113.2-63.9,112.4-65.8,110.3"/>
	</g>
	<path class="st1" d="M263.5,134.1l6.6,8.5c-1.4,0.4-2.2,0.1-3-0.9c-2.2-3-4.6-5.9-7.1-9.2c0.8,0,1.3,0,1.8,0c2.4-0.1,4.1-1.8,4-4.1
		c0-2.2-1.7-3.9-4-3.9c-2.4,0-4.8,0-7.3,0v18.2h-1.7V123c3.5,0,7-0.3,10.5,0.1c2.4,0.3,3.8,2.2,4.2,4.6c0.4,2.4-0.6,4.3-2.6,5.7
		C264.6,133.6,264.1,133.8,263.5,134.1 M288.7,122.9v1.7h-11.9v7.5h10.7v1.7h-10.7v7.4h11.9v1.6H275c0-0.5-0.1-0.9-0.1-1.3
		c0-5.7,0-11.5,0-17.2c0-1.2,0.4-1.5,1.5-1.5C280.4,122.9,284.5,122.9,288.7,122.9 M168.9,122.9h13.8v1.6h-12.1v7.5h10.9v1.7h-10.9
		v7.5h12.1v1.6h-13.8V122.9z M109,142.8v-19.9h4c0,0.4,0.1,0.8,0.1,1.2c0,5.8,0,11.5,0,17.3c0,1.2-0.4,1.5-1.6,1.4
		C110.8,142.7,110,142.8,109,142.8 M245,122.9h1.5c0.1,0.2,0.2,0.4,0.2,0.5c0,4,0.1,7.9,0,11.9c-0.1,3.8-3.1,6.9-6.7,7.4
		c-4,0.5-7.5-1.7-8.7-5.4c-0.2-0.6-0.4-1.3-0.4-2c0-4.1,0-8.1,0-12.2c1.5-0.5,1.7-0.4,1.7,1.1c0,3.5,0,6.9,0,10.4
		c0.1,3.1,1.7,5.3,4.3,6.2c4,1.3,8-1.6,8.1-5.8C245,131,245,127.1,245,122.9 M145.5,123c1.3-0.4,1.9,0,2.4,1.1
		c2,4.9,4.1,9.8,6.2,14.7c0.2,0.5,0.4,1,0.7,1.7c0.4-0.8,0.7-1.4,0.9-2c2-4.8,4.1-9.5,6-14.3c0.4-1.1,1-1.5,2.3-1.1
		c-0.2,0.4-0.3,0.8-0.5,1.2c-2.4,5.8-4.9,11.6-7.3,17.3c-0.3,0.7-0.5,1.3-1.5,1.3c-1,0-1.2-0.6-1.5-1.3l-7.3-17.3
		C145.8,123.8,145.7,123.5,145.5,123 M216.7,124.5h-7.1l-0.1-1.6h15.8v1.6h-7v18.4h-1.7V124.5z"/>
</g>
</svg>
