<?xml version="1.0" encoding="utf-8"?>
<!-- Generator: Adobe Illustrator 26.0.1, SVG Export Plug-In . SVG Version: 6.00 Build 0)  -->
<svg version="1.1" id="레이어_1" xmlns:v="https://vecta.io/nano"
	 xmlns="http://www.w3.org/2000/svg" xmlns:xlink="http://www.w3.org/1999/xlink" x="0px" y="0px" viewBox="0 0 375 265"
	 style="enable-background:new 0 0 375 265;" xml:space="preserve">
<style type="text/css">
	.st0{fill:#575757;}
</style>
<g>
	<path class="st0" d="M70.6,139.2c-0.2-0.1-0.4-0.1-0.6,0.1c-0.1,0.2-0.1,0.4,0,0.6c1.1,1.7,3,6.8-1.6,14.2h7.4
		C77,149,76.4,142.7,70.6,139.2 M86.6,141.7c-0.4-0.1-0.8,0.3-0.4,0.6c0,0,3.6,3.1,2.9,11.6h6.6C95.6,154,95.5,143.7,86.6,141.7
		 M104,128.7c0,0,2.1-1.1,0.7-3.1c0.3-0.3,0.5-0.7,0.5-1.2c0-0.5-0.1-0.9-0.5-1.2c0,0,0.8-1.4-0.3-2.3c0,0,1.6-2.6-0.3-3.6
		c-0.5-0.3-1-0.3-1.5-0.2c-0.3,0.1-0.5,0.2-0.8,0.3c-0.5,0.3-0.8,0.7-1.1,1.2c-0.6,1-1.2,2.1-1.8,3.2l-3.2-2.9
		c-0.2-0.2,0-0.6,0.2-0.8c0.2-0.3,0.5-0.6,0.9-0.8c0.4-0.2,0.8-0.4,1.2-0.5c0.3-0.1,1-0.2,1-0.7c0-0.3-0.3-0.4-0.6-0.4l-0.6-0.1
		c-0.2,0-0.3,0-0.4-0.1c0-0.1-0.1-0.2,0-0.3c0-0.1,0.2-0.2,0.3-0.2c0,0,1.2-0.3,1.1-0.6c-0.2-0.7-0.5-1.3-0.9-1.9
		c0,0-0.2-0.3-0.9,0.3c-0.1,0.1-0.2,0.2-0.4,0.3c-0.4,0.1-0.7-0.3-0.9-0.5c-0.3-0.3-0.6-0.5-1-0.8c-0.5-0.3-1-0.4-1.6-0.5H93
		c-0.5,0-1,0.1-1.4,0.3c-0.2,0.1-0.4,0.1-0.6,0c-0.1-0.1-0.3-0.2-0.4-0.3c-0.2-0.1-0.4-0.1-0.6-0.1c-0.7,0-1.3,0.6-1.3,1.3
		c0,0,0,0.1,0,0.1v0.1c0,0.2,0.1,0.4,0.2,0.5l0.1,0.1c0.1,0,0.1,0.1,0.1,0.2c0,0.1,0,0.1-0.1,0.1c-0.5,0.5-1.4,1.4-2.2,4
		c0,0-4-3.3-7.5-2c-0.2,0.1-0.5,0.2-0.7,0.3c0,0,1.7,1,2.4,2.1c0,0.1,0,0.1,0,0.2c0,0.1-0.1,0.1-0.2,0.1l0,0l-7.3,1.2
		c-0.1,0-0.1,0-0.1-0.1c0,0,0-0.1,0-0.1l6.4-5.5c0.2-0.2,0.3-0.3,0.4-0.5c0.1-0.2,0.2-0.4,0.2-0.6c0-0.5-0.4-0.9-0.8-1h-0.2
		c-0.2,0-0.4-0.1-0.7-0.1h-5.7c-0.1,0-0.2,0-0.3,0l0,0c-0.2,0.1-0.3,0.2-0.3,0.4c0,0.2,0.1,0.3,0.3,0.4c0.3,0.3,0.6,0.4,0.6,0.8
		c0,0.5-0.2,0.9-0.4,1.3l-2.8,5c-0.1,0.1-0.1,0.2-0.2,0.3c-0.1,0.1-0.3,0.2-0.5,0.2l-3.9,0.6c-0.1,0-0.2,0-0.3,0.1
		c-0.1,0.1-0.1,0.2-0.1,0.3c0,0.2,0.1,0.3,0.3,0.4l0.6,0.2l0.8,2.4c0.1,0.3,0.6,1,1.8,0.6c0.3-0.1,0.6-0.1,0.8,0.1
		c0.2,0.2,0.3,0.5,0.3,0.8v11.5c0,0.1,0,0.1,0,0.1c0,0.1,0.1,0.1,0.2,0.1c1.1,0.2,2.2,0.6,3.2,1.2c0.1,0,0.1,0.1,0.1,0
		c0,0,0.1-0.1,0-0.1v-3.2h6.4v1.7c0,0.5-0.2,0.9-0.5,1.2s-0.8,0.5-1.2,0.4H74c-0.1,0-0.3,0.1-0.3,0.2c0,0.2,0.1,0.3,0.3,0.4
		c0,0,7.5,4.4,5.6,15h6.3c0,0,0.5-6.7-4.3-10.5c-0.1-0.1-0.2-0.2-0.2-0.3c0-0.1,0.1-0.2,0.2-0.2l0.1,0c1.1-0.3,6-2,6.1-7.6l0-10.6
		c0.1-2.1,0.3-2.5,0.7-2.5c0.3,0,0.4,0.4,0.6,1.1c0.3,1.2,0.8,2.3,1.7,3.2l1.8,1.8l3.4,3.4c0.5,0.5,2.4,3.7-2.5,6.5
		c-0.3,0.2-0.6,0.2-0.7,0.5c-0.2,0.3,0.2,0.7,0.5,1c0.6,0.7,1.2,1.5,1.6,2.3c1.4,2.5,3.3,7.5,2.4,12h7.3c0,0,0.7-10.3-8.6-13.9
		c-0.1,0-0.1-0.1-0.2-0.1c0-0.1,0-0.1,0-0.2c0.1-0.2,0.2-0.2,0.3-0.3c0.7-0.5,3.5-2.6,2.9-5.8C99.1,133.6,103.9,133.8,104,128.7
		 M79.5,132.6h-6.4v-1.7h6.4C79.5,130.9,79.5,132.6,79.5,132.6z M79.5,128.5h-6.4v-1.7h6.4C79.5,126.8,79.5,128.5,79.5,128.5z
		 M83.6,139.1L83.6,139.1c0,0-0.1,0-0.1,0c-0.1,0-0.3-0.1-0.3-0.3l0,0v-12.7c0-1.6-1.1-1.8-1.6-1.8h-8.8c-0.4,0.1-0.9-0.2-1.1-0.6
		c-0.1-0.1-0.1-0.2,0-0.3c0-0.1,0.1-0.2,0.2-0.2l9-3l0.4-0.1c0.1,0,0.1,0,0.2,0c0.1,0,0.1,0.1,0.1,0.2c0.1,0.4,0.3,0.9,0.5,1.3
		c0.7,1.2,1.9,2,3.3,2.1V136C85.4,137.3,84.7,138.5,83.6,139.1 M93,112.2c0.5,0,0.8,0.4,0.8,0.8c0,0,0,0,0,0c0,0.5-0.4,0.8-0.8,0.8
		c-0.5,0-0.8-0.4-0.8-0.8c0,0,0,0,0,0c0-0.2,0.1-0.4,0.2-0.6C92.6,112.3,92.8,112.2,93,112.2 M98.3,130.1l-6.3-6.2
		c-0.2-0.2-1.5-1.6-0.2-2.9c0.9-1,2.1-0.4,2.6,0c0.5,0.4,5.6,5.2,5.6,5.2c0.3-3,1.7-3.8,1.7-3.8c0.2-0.1,0.4-0.2,0.7-0.2
		c0.2,0,0.4,0.2,0.6,0.4c0.4,0.6-0.2,1.4-0.2,1.4c0.4,0.1,0.5,0.5,0.4,0.9c0,0.2-0.1,0.4-0.3,0.6c-0.1,0.1-0.1,0.1-0.2,0.2
		c0.1,0,0.3,0.1,0.4,0.2c0.1,0.1,0.1,0.3,0.1,0.5c0,0.4-0.1,0.7-0.4,1c-0.3,0.3-0.6,0.5-0.9,0.6c0.1,1.2-0.3,1.8-0.8,2.2
		C100.2,130.8,99,130.8,98.3,130.1 M163.3,143l-9.5-21.5h-2.6l-10,22.8h3l3.7-8.2h7.9l2.6,5.7l0,0l0.2,0.5c0.5,1.2,1.7,1.9,3,2h2.4
		L163.3,143L163.3,143z M148.7,134.1l3-6.7l3.1,6.7C154.8,134.1,148.7,134.1,148.7,134.1z"/>
	<path class="st0" d="M137.1,124.4c-2.6-2-5.5-2.9-9.8-2.9h-9v19.6c0,0.9,0,1.8,0.7,2.5c0.7,0.7,1.9,0.7,2.7,0.7h7.9
		c2.9,0.1,5.8-1,7.9-3c2.1-2,3.4-4.8,3.4-7.7C141.1,129.7,139.7,126.4,137.1,124.4 M128.2,142.4h-4c-0.3,0-0.6-0.1-0.8-0.4
		c-0.1-0.3-0.2-0.6-0.2-0.9v-17.7h4.2c3.1,0,5,0.7,6.6,2.3c1.8,1.8,2.4,4.3,2.4,7.7C136.4,139.2,133.5,142.3,128.2,142.4
		 M227.4,121.5L227.4,121.5c-3.9,0-6.9,1.4-8.9,3.6c-2,2.3-3,5.2-3,8.2c0,6.1,5.2,11.9,11.9,11.9l0,0c3.8,0,6.8-1.4,8.8-3.6
		c2-2.3,3-5.2,3-8.3C239.1,127.3,233.9,121.5,227.4,121.5 M227.3,143.2c-3.9,0-7.3-3.2-7.3-9.8s3.4-9.8,7.3-9.8c4,0,7.2,3.2,7.3,9.8
		C234.6,139.9,231.2,143.2,227.3,143.2"/>
	<path class="st0" d="M252.7,121.5L252.7,121.5c-3.9,0-6.9,1.4-8.9,3.6c-2,2.3-3,5.2-3,8.2c0,6.1,5.2,11.9,11.9,11.9l0,0
		c3.8,0,6.8-1.4,8.8-3.6c2-2.3,3-5.2,3-8.3C264.5,127.3,259.3,121.5,252.7,121.5 M252.7,143.2c-3.9,0-7.3-3.2-7.3-9.8
		s3.4-9.8,7.3-9.8c4,0,7.2,3.2,7.3,9.8C260,139.9,256.6,143.2,252.7,143.2 M165.6,141.1c-0.1,1.1,0.4,2.1,1.3,2.7
		c0.7,0.6,1.7,0.6,2.9,0.6h12.4v-2h-11.1c-0.3,0-0.7-0.1-0.9-0.3c-0.2-0.3-0.3-0.6-0.3-1v-7.6h9.8v-2.1H170v-7.8h11.2v-2.1h-15.5
		C165.6,121.5,165.6,141.1,165.6,141.1z"/>
	<path class="st0" d="M310,133.1h-8.9v2h4.3c0.2,0,0.4,0.1,0.6,0.2c0.2,0.1,0.3,0.3,0.3,0.6v5.4c-0.4,0.7-2.4,1.8-4.8,1.8
		c-4.9,0-8-3.7-8.1-9c0-3.9,0.8-6.2,2.1-7.9c1.2-1.7,3.1-2.7,5.2-2.7c5,0,5.4,4.6,5.4,4.6h3.8c0-1.4-1.5-6.6-9.4-6.6
		c-4.1,0-6.5,1.4-8.5,3.7s-3,5.4-3,8.8c0,5.9,4.9,11.3,11.9,11.3c2.2,0,4.5-0.5,6.5-1.4c1.6-0.7,2.6-1.6,2.6-2.7L310,133.1
		L310,133.1z M213.7,122.4l-7,16.9l-6.8-16.9h-4.5l3.9,9.8l-3,7.1l-6.8-16.9h-4.5l8.3,21c0.2,0.6,0.7,1.8,2,1.8
		c0.9,0,1.4-0.2,2.1-1.8l3.2-7.9l3.2,8c0.2,0.6,0.8,1.8,2,1.8c0.9,0,1.4-0.3,2.1-1.8l8.6-21L213.7,122.4L213.7,122.4z M286.4,122.4
		h-2.7v14.9l-9.8-12.9c-0.9-1.2-1.7-2.1-3.6-2.1h-3.2v22.3h2.7v-18.8l12.8,17c1,1.5,1.8,2.3,2.5,2.4h0c0.3,0,0.7-0.1,0.9-0.4
		c0.2-0.3,0.4-0.7,0.3-1.2C286.4,143.7,286.4,122.4,286.4,122.4z"/>
</g>
</svg>
