<?xml version="1.0" encoding="utf-8"?>
<!-- Generator: Adobe Illustrator 26.0.1, SVG Export Plug-In . SVG Version: 6.00 Build 0)  -->
<svg version="1.1" id="레이어_1" xmlns:v="https://vecta.io/nano"
	 xmlns="http://www.w3.org/2000/svg" xmlns:xlink="http://www.w3.org/1999/xlink" x="0px" y="0px" viewBox="0 0 375 265"
	 style="enable-background:new 0 0 375 265;" xml:space="preserve">
<style type="text/css">
	.st0{fill:#575757;}
	.st1{fill:#FFFFFF;}
</style>
<g>
	<g>
		<path class="st0" d="M201.9,118.8c-10.6,0-16.9,6.5-16.9,14.5s6.3,14.5,16.9,14.5s16.9-6.5,16.9-14.5S212.5,118.8,201.9,118.8z
			 M201.9,144.8c-5.1,0-8.9-5.1-8.9-11.4c0-6.3,3.9-11.4,8.9-11.4c5.1,0,8.9,5.1,8.9,11.4C210.8,139.7,207,144.7,201.9,144.8
			C201.9,144.7,201.9,144.8,201.9,144.8z M220.2,123.1h11.1v23.6h8.4v-23.6h9.4v-3.2h-28.9V123.1z M252.1,123.1h9.4v23.6h8.4v-23.6
			H281v-3.2h-28.9L252.1,123.1z M168.3,141.9v-22h-8v23.6c0,0.8,0.3,1.7,0.9,2.3s1.4,0.9,2.3,0.9h20.5v-3.2H170
			C169.1,143.5,168.4,142.8,168.3,141.9L168.3,141.9z M295.2,123h15.4v-3.1h-21.9c-1.8,0-3.2,1.4-3.2,3.2c0,0,0,0,0,0v20.4
			c0,1.8,1.4,3.2,3.2,3.2l0,0h21.9v-3.2h-15.4c-0.4,0-0.8-0.2-1.1-0.5c-0.3-0.3-0.5-0.7-0.5-1.1V134h16.8v-3.1h-16.8v-6.3
			c0-0.4,0.2-0.8,0.5-1.1C294.4,123.2,294.8,123,295.2,123L295.2,123z M118.6,164.8c-8.8,8.7-22.9,8.7-31.6,0l-16.1-16
			c-8.7-8.7-8.7-22.8,0-31.6l16.1-16c8.8-8.7,22.9-8.7,31.6,0l16.1,16c8.7,8.7,8.7,22.8,0,31.6L118.6,164.8z"/>
		<path class="st0" d="M93.2,156.5c-0.9,0-1.8-0.6-2.2-1.4c-0.4-0.9-0.2-1.9,0.4-2.6c0.4-0.5,1-0.7,1.7-0.8c1.3,0,2.3,1,2.4,2.3
			c0.1,1.3-0.9,2.3-2.2,2.5L93.2,156.5L93.2,156.5z"/>
	</g>
	<path class="st1" d="M101.9,112.7c-1.2,0-2.4,0.4-3.2,1.3c-1.8,1.8-2.8,5.5-2.7,10.5c0.1,6.1,1.6,18.1,6.4,24.3
		c0.7,0.9,1.5,1.7,2.5,2.4c1,0.7,2.1,1.1,3.3,1.1c0.4,0,0.9,0,1.3-0.1c2.8-0.7,6.2-3.7,8.8-7.8c0.4-0.6,1.1-1,1.8-1
		c0.4,0,0.8,0.1,1.1,0.3c0.5,0.3,0.8,0.8,0.9,1.3c0.1,0.5,0,1.1-0.3,1.6c-3.3,5.2-7.6,8.8-11.5,9.7h-0.1c-0.7,0.1-1.4,0.2-2.1,0.2
		c-2,0-4-0.6-5.6-1.8c-1.3-0.9-2.5-2-3.5-3.3c-6.8-8.7-7.3-25-7.3-26.9c-0.1-4.3,0.6-10.2,4-13.6c1.6-1.6,3.9-2.5,6.2-2.5h0.4
		c2.3,0,4.5,0.9,6.1,2.5c3.4,3.4,4,9.3,4,13.6c-0.1,4.5-0.9,13.3-5.6,21.2c-0.4,0.6-1.1,1-1.8,1c-0.4,0-0.8-0.1-1.1-0.3
		c-1-0.6-1.3-1.9-0.7-2.9c3.3-5.5,4.9-11.5,5-19c0.1-5-0.9-8.7-2.7-10.5c-0.8-0.8-2-1.3-3.2-1.3L101.9,112.7L101.9,112.7z"/>
</g>
</svg>
