<?xml version="1.0" encoding="utf-8"?>
<!-- Generator: Adobe Illustrator 26.0.1, SVG Export Plug-In . SVG Version: 6.00 Build 0)  -->
<svg version="1.1" id="레이어_1" xmlns="http://www.w3.org/2000/svg" xmlns:xlink="http://www.w3.org/1999/xlink" x="0px"
	 y="0px" viewBox="0 0 375 265" style="enable-background:new 0 0 375 265;" xml:space="preserve">
<style type="text/css">
	.st0{fill-rule:evenodd;clip-rule:evenodd;fill:#575757;}
	.st1{filter:url(#Adobe_OpacityMaskFilter);}
	.st2{fill-rule:evenodd;clip-rule:evenodd;fill:#FFFFFF;}
	.st3{mask:url(#b_00000177470382753387342000000014365131532557212547_);fill-rule:evenodd;clip-rule:evenodd;fill:#575757;}
	.st4{filter:url(#Adobe_OpacityMaskFilter_00000093169238338919119220000015079137104265803400_);}
	.st5{mask:url(#d_00000032645365933931491030000013663135002864757431_);fill-rule:evenodd;clip-rule:evenodd;fill:#575757;}
	.st6{fill:none;}
</style>
<g>
	<path class="st0" d="M117.2,121.5c1.8-0.6,2.4,0.1,3,1.4c2.6,5.8,5.2,11.5,8,17.6c1.9-4.1,3.7-7.9,5.4-11.7c0.9-2,1.8-4,2.8-6.1
		c0.8-1.6,0.8-1.6,2.9-1.2l1.3,21.5h-2.2l-1-16l-0.4-0.1l-4.3,9c-0.9,1.9-1.8,3.9-2.8,5.8c-0.3,0.6-1.1,1.3-1.6,1.3
		c-0.6,0-1.4-0.7-1.7-1.3c-2.3-4.7-4.5-9.4-6.7-14c-0.1-0.3-0.3-0.6-0.8-1.4l-1,16.7h-2.2L117.2,121.5 M85.1,133.3c2.1,0,4,0,5.9,0
		c0.6,0,1.2-0.2,1.8-0.4c2.3-0.7,3.7-2.7,3.6-5c0-2.2-1.3-4-3.5-4.4c-2.5-0.4-5.2-0.4-7.8-0.5C85.1,123,85.1,133.3,85.1,133.3z
		 M85.1,143.1h-2.2v-21.8c3.2,0,6.5-0.2,9.6,0.1c3.4,0.3,5.5,2.5,5.9,5.5c0.5,3.3-0.8,5.8-3.8,7.5c-0.3,0.2-0.6,0.3-1,0.6l5.9,8
		c-1.7,0.6-2.7,0.2-3.5-1.1c-0.5-0.9-1.4-1.7-1.9-2.6c-1.8-4-5.1-4.3-9-3.5V143.1z M172.5,133.3c2.1,0,3.9,0,5.7,0
		c0.7,0,1.3-0.2,2-0.4c2.3-0.7,3.6-2.6,3.5-5.1c-0.1-2.4-1.3-4.2-3.8-4.5c-2.4-0.3-4.9-0.1-7.4-0.1V133.3L172.5,133.3z M181,134.8
		c2,2.7,3.9,5.3,5.9,8.1c-1.7,0.6-2.7,0.2-3.5-1.2c-0.6-1-1.3-1.9-2-2.8c-3-4.1-3.3-4.2-8.9-3.4v7.5l-2.1,0.1v-21.8
		c3.4,0,6.9-0.3,10.4,0.1c3,0.3,4.7,2.6,5.2,5.7c0.4,2.8-0.8,5.3-3.3,6.8C182,134.2,181.6,134.5,181,134.8L181,134.8z"/>
	<g transform="translate(335.71 30.72)">
		<defs>
			<filter id="Adobe_OpacityMaskFilter" filterUnits="userSpaceOnUse" x="-38.9" y="90.7" width="15.3" height="21.6">
				<feColorMatrix  type="matrix" values="1 0 0 0 0  0 1 0 0 0  0 0 1 0 0  0 0 0 1 0"/>
			</filter>
		</defs>
		
			<mask maskUnits="userSpaceOnUse" x="-38.9" y="90.7" width="15.3" height="21.6" id="b_00000177470382753387342000000014365131532557212547_">
			<g class="st1">
				<path id="a_00000131354339239869989070000003851857751901858495_" class="st2" d="M-38.9,90.7h15.3v21.6h-15.3V90.7z"/>
			</g>
		</mask>
		<path class="st3" d="M-23.7,90.7v1.8h-12.8v8h6.8c0.9,0,1.9-0.1,2.8,0c0.6,0.1,1.2,0.6,1.8,1c-0.6,0.4-1.1,1-1.7,1
			c-2.4,0.1-4.9,0.1-7.3,0.1h-2.4v7.7h12.7l0.2,2h-15.3V90.7H-23.7z"/>
	</g>
	<path class="st0" d="M240.2,135.7l-5.2-11.9l-5.2,11.9L240.2,135.7L240.2,135.7z M245.9,142.9c-1.8,0.6-2.8,0-3.2-1.6
		c-0.7-3-2.5-3.9-5.5-3.6c-2.3,0.3-4.6,0.1-6.9,0c-1.2-0.1-1.9,0.4-2.2,1.5c-0.2,0.8-0.7,1.5-0.9,2.2c-0.5,1.5-1.4,2-3.1,1.4
		c0.7-1.5,1.3-3,2-4.5c2.4-5.3,4.8-10.7,7.2-16c0.3-0.6,1.1-1.4,1.6-1.4c0.6,0.1,1.5,0.8,1.8,1.4C239.8,129.2,242.8,136,245.9,142.9
		z M147.9,121.2c4.8,0,9.4,0,13.9,0.1c0.5,0,1,0.8,1.5,1.3l-0.4,0.6h-12.8v8h11.4v2.1h-11.4v7.8h12.8l0.1,1.9h-15.1L147.9,121.2
		L147.9,121.2z"/>
	<g transform="translate(222.404 30)">
		<defs>
			
				<filter id="Adobe_OpacityMaskFilter_00000155838336600342896550000008077884898201208712_" filterUnits="userSpaceOnUse" x="-20.3" y="90.8" width="17.3" height="22.8">
				<feColorMatrix  type="matrix" values="1 0 0 0 0  0 1 0 0 0  0 0 1 0 0  0 0 0 1 0"/>
			</filter>
		</defs>
		
			<mask maskUnits="userSpaceOnUse" x="-20.3" y="90.8" width="17.3" height="22.8" id="d_00000032645365933931491030000013663135002864757431_">
			<g style="filter:url(#Adobe_OpacityMaskFilter_00000155838336600342896550000008077884898201208712_);">
				<path id="c_00000176738528151958009240000017514419359998675380_" class="st2" d="M-20.3,90.8H-3v22.8h-17.3V90.8z"/>
			</g>
		</mask>
		<path class="st5" d="M-3.9,92.1c0,1.6-0.6,1.8-1.9,1.6c-2.2-0.4-4.5-0.7-6.8-0.8c-1.1,0-2.3,0.5-3.1,1.1c-2.1,1.6-1.7,4.7,0.8,5.7
			c1.4,0.6,3,0.8,4.5,1.2c1.2,0.3,2.5,0.6,3.7,1.1c2.3,0.8,3.7,2.4,3.8,5c0,2.6-1,4.7-3.5,5.6c-1.5,0.6-3.1,1.1-4.7,1
			c-3-0.2-6-0.8-9.2-1.3l0.5-2.1c2.9,0.5,5.7,1,8.5,1.3c1.2,0.1,2.4-0.2,3.6-0.5c1.6-0.5,2.5-1.8,2.6-3.5c0.1-1.7-0.9-2.9-2.4-3.4
			c-1.7-0.6-3.5-1-5.2-1.5c-1-0.3-2-0.5-2.9-0.8c-2.1-0.7-3.5-2-3.6-4.4c-0.1-2.5,0.9-4.5,3.2-5.6c3.3-1.6,6.7-1,10.1-0.4
			C-5.4,91.6-4.7,91.8-3.9,92.1"/>
	</g>
	<path class="st0" d="M254.1,141.1h13.7l0.2,1.9h-17.3c0.4-0.9,0.6-1.8,1.1-2.4c3.9-5.3,7.9-10.6,11.9-15.8c0.3-0.4,0.5-0.7,1-1.4
		h-13.2l-0.2-2h16.9c-0.4,0.9-0.7,1.7-1.1,2.4c-3.8,5.2-7.7,10.4-11.6,15.5C255,139.7,254.7,140.2,254.1,141.1 M286.7,123.2h-13.4
		v-1.9c0.4,0,0.7-0.1,1.1-0.1c5.1,0,10.1,0,15.8,0c-0.6,1.2-0.9,2.1-1.4,2.9c-4.1,5.5-8.2,11-12.6,16.8h13.6l0.2,2h-17.4
		c0.4-0.9,0.6-1.8,1.1-2.4c3.9-5.2,7.9-10.4,11.8-15.7C285.8,124.5,286.1,124.1,286.7,123.2 M63.4,133.9c2.7-0.2,5.3-0.2,7.7-0.6
		c2.5-0.5,3.9-2.7,3.8-5.2c-0.1-2.5-1.5-4.4-4-4.8c-2.4-0.4-4.9-0.3-7.5-0.4L63.4,133.9L63.4,133.9z M63.3,135.7v7.3l-2.1,0.1v-21.9
		c3.4,0,6.8-0.3,10.1,0.1c3.8,0.5,5.8,3.4,5.8,7.1c-0.1,3.5-2.3,6.2-5.9,6.9c-1.2,0.3-2.5,0.3-3.8,0.3
		C66.1,135.8,64.8,135.7,63.3,135.7L63.3,135.7z M105.9,121.3h2.1V143l-2.1,0.1V121.3L105.9,121.3z"/>
	<path class="st6" d="M16.1,95.7h342.9v73.6H16.1V95.7z"/>
</g>
</svg>
